<mxfile host="app.diagrams.net" modified="2024-12-01T04:18:13.320Z" agent="Mozilla/5.0 (Windows NT 10.0; Win64; x64) AppleWebKit/537.36 (KHTML, like Gecko) Chrome/131.0.0.0 Safari/537.36" etag="M1GNIYLUOA5Hg9mxVhhI" version="22.0.0" type="device">
  <diagram name="Page-1" id="mZh4LNhNvxGV_lP3Z12w">
    <mxGraphModel dx="4435" dy="4045" grid="1" gridSize="10" guides="1" tooltips="1" connect="1" arrows="1" fold="1" page="1" pageScale="1" pageWidth="850" pageHeight="1100" math="0" shadow="0">
      <root>
        <mxCell id="0" />
        <mxCell id="1" parent="0" />
        <mxCell id="cq4bhQK_P8V5caKXd9An-1" value="" style="rounded=0;whiteSpace=wrap;html=1;strokeWidth=3;" vertex="1" parent="1">
          <mxGeometry x="380" y="-1440" width="930" height="100" as="geometry" />
        </mxCell>
        <mxCell id="cq4bhQK_P8V5caKXd9An-2" value="" style="whiteSpace=wrap;html=1;aspect=fixed;strokeWidth=3;" vertex="1" parent="1">
          <mxGeometry x="-415" y="-910" width="730" height="730" as="geometry" />
        </mxCell>
        <mxCell id="cq4bhQK_P8V5caKXd9An-7" value="" style="ellipse;whiteSpace=wrap;html=1;aspect=fixed;strokeWidth=3;fillColor=#fa6800;fontColor=#000000;strokeColor=#C73500;" vertex="1" parent="1">
          <mxGeometry x="-300" y="-790" width="50" height="50" as="geometry" />
        </mxCell>
        <mxCell id="cq4bhQK_P8V5caKXd9An-8" value="" style="ellipse;whiteSpace=wrap;html=1;aspect=fixed;strokeWidth=3;" vertex="1" parent="1">
          <mxGeometry x="-390" y="-700" width="50" height="50" as="geometry" />
        </mxCell>
        <mxCell id="cq4bhQK_P8V5caKXd9An-9" value="" style="ellipse;whiteSpace=wrap;html=1;aspect=fixed;strokeWidth=3;fillColor=#fa6800;fontColor=#000000;strokeColor=#C73500;" vertex="1" parent="1">
          <mxGeometry x="-220" y="-700" width="50" height="50" as="geometry" />
        </mxCell>
        <mxCell id="cq4bhQK_P8V5caKXd9An-11" value="" style="ellipse;whiteSpace=wrap;html=1;aspect=fixed;strokeWidth=3;" vertex="1" parent="1">
          <mxGeometry x="-290" y="-610" width="50" height="50" as="geometry" />
        </mxCell>
        <mxCell id="cq4bhQK_P8V5caKXd9An-12" value="" style="ellipse;whiteSpace=wrap;html=1;aspect=fixed;strokeWidth=3;fillColor=#fa6800;fontColor=#000000;strokeColor=#C73500;" vertex="1" parent="1">
          <mxGeometry x="-140" y="-620" width="50" height="50" as="geometry" />
        </mxCell>
        <mxCell id="cq4bhQK_P8V5caKXd9An-14" value="" style="endArrow=none;html=1;rounded=0;entryX=0;entryY=1;entryDx=0;entryDy=0;exitX=1;exitY=0;exitDx=0;exitDy=0;strokeWidth=3;fillColor=#fa6800;strokeColor=#C73500;" edge="1" parent="1" source="cq4bhQK_P8V5caKXd9An-7">
          <mxGeometry width="50" height="50" relative="1" as="geometry">
            <mxPoint x="-260" y="-780" as="sourcePoint" />
            <mxPoint x="-102.67766952966349" y="-867.3223304703365" as="targetPoint" />
          </mxGeometry>
        </mxCell>
        <mxCell id="cq4bhQK_P8V5caKXd9An-15" value="" style="endArrow=none;html=1;rounded=0;strokeWidth=3;" edge="1" parent="1">
          <mxGeometry width="50" height="50" relative="1" as="geometry">
            <mxPoint x="-350" y="-700" as="sourcePoint" />
            <mxPoint x="-300" y="-750" as="targetPoint" />
          </mxGeometry>
        </mxCell>
        <mxCell id="cq4bhQK_P8V5caKXd9An-16" value="" style="endArrow=none;html=1;rounded=0;strokeWidth=3;fillColor=#fa6800;strokeColor=#C73500;" edge="1" parent="1" source="cq4bhQK_P8V5caKXd9An-9" target="cq4bhQK_P8V5caKXd9An-7">
          <mxGeometry width="50" height="50" relative="1" as="geometry">
            <mxPoint x="-220" y="-690" as="sourcePoint" />
            <mxPoint x="-170" y="-740" as="targetPoint" />
          </mxGeometry>
        </mxCell>
        <mxCell id="cq4bhQK_P8V5caKXd9An-17" value="" style="endArrow=none;html=1;rounded=0;strokeWidth=3;" edge="1" parent="1" source="cq4bhQK_P8V5caKXd9An-11" target="cq4bhQK_P8V5caKXd9An-9">
          <mxGeometry width="50" height="50" relative="1" as="geometry">
            <mxPoint x="-260" y="-610" as="sourcePoint" />
            <mxPoint x="-200" y="-660" as="targetPoint" />
          </mxGeometry>
        </mxCell>
        <mxCell id="cq4bhQK_P8V5caKXd9An-18" value="" style="endArrow=none;html=1;rounded=0;strokeWidth=3;fillColor=#fa6800;strokeColor=#C73500;" edge="1" parent="1" source="cq4bhQK_P8V5caKXd9An-12" target="cq4bhQK_P8V5caKXd9An-9">
          <mxGeometry width="50" height="50" relative="1" as="geometry">
            <mxPoint x="-140" y="-600" as="sourcePoint" />
            <mxPoint x="-90" y="-650" as="targetPoint" />
          </mxGeometry>
        </mxCell>
        <mxCell id="cq4bhQK_P8V5caKXd9An-19" value="" style="ellipse;whiteSpace=wrap;html=1;aspect=fixed;strokeWidth=3;" vertex="1" parent="1">
          <mxGeometry x="30" y="-804" width="50" height="50" as="geometry" />
        </mxCell>
        <mxCell id="cq4bhQK_P8V5caKXd9An-20" value="" style="ellipse;whiteSpace=wrap;html=1;aspect=fixed;strokeWidth=3;" vertex="1" parent="1">
          <mxGeometry x="-40" y="-714" width="50" height="50" as="geometry" />
        </mxCell>
        <mxCell id="cq4bhQK_P8V5caKXd9An-21" value="" style="ellipse;whiteSpace=wrap;html=1;aspect=fixed;strokeWidth=3;" vertex="1" parent="1">
          <mxGeometry x="100" y="-714" width="50" height="50" as="geometry" />
        </mxCell>
        <mxCell id="cq4bhQK_P8V5caKXd9An-22" value="" style="endArrow=none;html=1;rounded=0;entryX=1;entryY=1;entryDx=0;entryDy=0;strokeWidth=3;" edge="1" parent="1" source="cq4bhQK_P8V5caKXd9An-19">
          <mxGeometry width="50" height="50" relative="1" as="geometry">
            <mxPoint x="30" y="-794" as="sourcePoint" />
            <mxPoint x="-67.32233047033606" y="-867.322330470336" as="targetPoint" />
          </mxGeometry>
        </mxCell>
        <mxCell id="cq4bhQK_P8V5caKXd9An-23" value="" style="endArrow=none;html=1;rounded=0;strokeWidth=3;" edge="1" parent="1" source="cq4bhQK_P8V5caKXd9An-20" target="cq4bhQK_P8V5caKXd9An-19">
          <mxGeometry width="50" height="50" relative="1" as="geometry">
            <mxPoint x="-10" y="-714" as="sourcePoint" />
            <mxPoint x="50" y="-764" as="targetPoint" />
          </mxGeometry>
        </mxCell>
        <mxCell id="cq4bhQK_P8V5caKXd9An-24" value="" style="endArrow=none;html=1;rounded=0;exitX=0.273;exitY=-0.013;exitDx=0;exitDy=0;exitPerimeter=0;strokeWidth=3;" edge="1" parent="1" source="cq4bhQK_P8V5caKXd9An-21" target="cq4bhQK_P8V5caKXd9An-19">
          <mxGeometry width="50" height="50" relative="1" as="geometry">
            <mxPoint x="110" y="-714" as="sourcePoint" />
            <mxPoint x="70" y="-764" as="targetPoint" />
          </mxGeometry>
        </mxCell>
        <mxCell id="cq4bhQK_P8V5caKXd9An-31" value="" style="ellipse;whiteSpace=wrap;html=1;aspect=fixed;strokeWidth=3;" vertex="1" parent="1">
          <mxGeometry x="180" y="-620" width="50" height="50" as="geometry" />
        </mxCell>
        <mxCell id="cq4bhQK_P8V5caKXd9An-32" value="" style="ellipse;whiteSpace=wrap;html=1;aspect=fixed;strokeWidth=3;" vertex="1" parent="1">
          <mxGeometry x="100" y="-530" width="50" height="50" as="geometry" />
        </mxCell>
        <mxCell id="cq4bhQK_P8V5caKXd9An-33" value="" style="ellipse;whiteSpace=wrap;html=1;aspect=fixed;strokeWidth=3;" vertex="1" parent="1">
          <mxGeometry x="250" y="-530" width="50" height="50" as="geometry" />
        </mxCell>
        <mxCell id="cq4bhQK_P8V5caKXd9An-34" value="" style="endArrow=none;html=1;rounded=0;strokeWidth=3;" edge="1" parent="1" source="cq4bhQK_P8V5caKXd9An-32" target="cq4bhQK_P8V5caKXd9An-31">
          <mxGeometry width="50" height="50" relative="1" as="geometry">
            <mxPoint x="140" y="-530" as="sourcePoint" />
            <mxPoint x="200" y="-580" as="targetPoint" />
          </mxGeometry>
        </mxCell>
        <mxCell id="cq4bhQK_P8V5caKXd9An-35" value="" style="endArrow=none;html=1;rounded=0;strokeWidth=3;" edge="1" parent="1" source="cq4bhQK_P8V5caKXd9An-33" target="cq4bhQK_P8V5caKXd9An-31">
          <mxGeometry width="50" height="50" relative="1" as="geometry">
            <mxPoint x="260" y="-520" as="sourcePoint" />
            <mxPoint x="310" y="-570" as="targetPoint" />
          </mxGeometry>
        </mxCell>
        <mxCell id="cq4bhQK_P8V5caKXd9An-36" value="" style="endArrow=none;html=1;rounded=0;exitX=0;exitY=0;exitDx=0;exitDy=0;strokeWidth=3;" edge="1" parent="1" source="cq4bhQK_P8V5caKXd9An-31" target="cq4bhQK_P8V5caKXd9An-21">
          <mxGeometry width="50" height="50" relative="1" as="geometry">
            <mxPoint x="186" y="-620" as="sourcePoint" />
            <mxPoint x="140" y="-672" as="targetPoint" />
          </mxGeometry>
        </mxCell>
        <mxCell id="cq4bhQK_P8V5caKXd9An-37" value="" style="ellipse;whiteSpace=wrap;html=1;aspect=fixed;strokeWidth=3;fillColor=#fa6800;fontColor=#000000;strokeColor=#C73500;" vertex="1" parent="1">
          <mxGeometry x="-60" y="-540" width="50" height="50" as="geometry" />
        </mxCell>
        <mxCell id="cq4bhQK_P8V5caKXd9An-38" value="" style="ellipse;whiteSpace=wrap;html=1;aspect=fixed;strokeWidth=3;" vertex="1" parent="1">
          <mxGeometry x="-160" y="-445" width="50" height="50" as="geometry" />
        </mxCell>
        <mxCell id="cq4bhQK_P8V5caKXd9An-39" value="" style="ellipse;whiteSpace=wrap;html=1;aspect=fixed;strokeWidth=3;fillColor=#fa6800;fontColor=#000000;strokeColor=#C73500;" vertex="1" parent="1">
          <mxGeometry x="10" y="-445" width="50" height="50" as="geometry" />
        </mxCell>
        <mxCell id="cq4bhQK_P8V5caKXd9An-40" value="" style="endArrow=none;html=1;rounded=0;entryX=1;entryY=1;entryDx=0;entryDy=0;strokeWidth=3;fillColor=#fa6800;strokeColor=#C73500;" edge="1" parent="1" source="cq4bhQK_P8V5caKXd9An-37" target="cq4bhQK_P8V5caKXd9An-12">
          <mxGeometry width="50" height="50" relative="1" as="geometry">
            <mxPoint x="-75" y="-514" as="sourcePoint" />
            <mxPoint x="-113" y="-570" as="targetPoint" />
          </mxGeometry>
        </mxCell>
        <mxCell id="cq4bhQK_P8V5caKXd9An-41" value="" style="endArrow=none;html=1;rounded=0;strokeWidth=3;" edge="1" parent="1" source="cq4bhQK_P8V5caKXd9An-38" target="cq4bhQK_P8V5caKXd9An-37">
          <mxGeometry width="50" height="50" relative="1" as="geometry">
            <mxPoint x="-115" y="-434" as="sourcePoint" />
            <mxPoint x="-55" y="-484" as="targetPoint" />
          </mxGeometry>
        </mxCell>
        <mxCell id="cq4bhQK_P8V5caKXd9An-42" value="" style="endArrow=none;html=1;rounded=0;strokeWidth=3;fillColor=#fa6800;strokeColor=#C73500;" edge="1" parent="1" source="cq4bhQK_P8V5caKXd9An-39" target="cq4bhQK_P8V5caKXd9An-37">
          <mxGeometry width="50" height="50" relative="1" as="geometry">
            <mxPoint x="5" y="-424" as="sourcePoint" />
            <mxPoint x="55" y="-474" as="targetPoint" />
          </mxGeometry>
        </mxCell>
        <mxCell id="cq4bhQK_P8V5caKXd9An-46" value="" style="ellipse;whiteSpace=wrap;html=1;aspect=fixed;strokeWidth=3;fillColor=#fa6800;fontColor=#000000;strokeColor=#C73500;" vertex="1" parent="1">
          <mxGeometry x="-110" y="-890" width="50" height="50" as="geometry" />
        </mxCell>
        <mxCell id="cq4bhQK_P8V5caKXd9An-47" value="" style="ellipse;whiteSpace=wrap;html=1;aspect=fixed;strokeWidth=3;" vertex="1" parent="1">
          <mxGeometry x="180" y="-445" width="50" height="50" as="geometry" />
        </mxCell>
        <mxCell id="cq4bhQK_P8V5caKXd9An-48" value="" style="endArrow=none;html=1;rounded=0;strokeWidth=3;" edge="1" parent="1" source="cq4bhQK_P8V5caKXd9An-47" target="cq4bhQK_P8V5caKXd9An-33">
          <mxGeometry width="50" height="50" relative="1" as="geometry">
            <mxPoint x="210" y="-445" as="sourcePoint" />
            <mxPoint x="260" y="-490" as="targetPoint" />
          </mxGeometry>
        </mxCell>
        <mxCell id="cq4bhQK_P8V5caKXd9An-49" value="" style="ellipse;whiteSpace=wrap;html=1;aspect=fixed;strokeWidth=3;" vertex="1" parent="1">
          <mxGeometry x="-75" y="-340" width="50" height="50" as="geometry" />
        </mxCell>
        <mxCell id="cq4bhQK_P8V5caKXd9An-50" value="" style="endArrow=none;html=1;rounded=0;strokeWidth=3;" edge="1" parent="1" source="cq4bhQK_P8V5caKXd9An-49" target="cq4bhQK_P8V5caKXd9An-39">
          <mxGeometry width="50" height="50" relative="1" as="geometry">
            <mxPoint x="-45" y="-343" as="sourcePoint" />
            <mxPoint x="4" y="-384" as="targetPoint" />
          </mxGeometry>
        </mxCell>
        <mxCell id="cq4bhQK_P8V5caKXd9An-51" value="" style="ellipse;whiteSpace=wrap;html=1;aspect=fixed;strokeWidth=3;fillColor=#fa6800;fontColor=#000000;strokeColor=#C73500;" vertex="1" parent="1">
          <mxGeometry x="90" y="-340" width="50" height="50" as="geometry" />
        </mxCell>
        <mxCell id="cq4bhQK_P8V5caKXd9An-52" value="" style="endArrow=none;html=1;rounded=0;strokeWidth=3;fillColor=#fa6800;strokeColor=#C73500;" edge="1" parent="1" source="cq4bhQK_P8V5caKXd9An-51" target="cq4bhQK_P8V5caKXd9An-39">
          <mxGeometry width="50" height="50" relative="1" as="geometry">
            <mxPoint x="80" y="-340" as="sourcePoint" />
            <mxPoint x="40" y="-395" as="targetPoint" />
          </mxGeometry>
        </mxCell>
        <mxCell id="cq4bhQK_P8V5caKXd9An-54" value="" style="whiteSpace=wrap;html=1;aspect=fixed;strokeWidth=3;" vertex="1" parent="1">
          <mxGeometry x="490" y="-905" width="730" height="730" as="geometry" />
        </mxCell>
        <mxCell id="cq4bhQK_P8V5caKXd9An-55" value="" style="ellipse;whiteSpace=wrap;html=1;aspect=fixed;strokeWidth=3;" vertex="1" parent="1">
          <mxGeometry x="605" y="-785" width="50" height="50" as="geometry" />
        </mxCell>
        <mxCell id="cq4bhQK_P8V5caKXd9An-56" value="" style="ellipse;whiteSpace=wrap;html=1;aspect=fixed;strokeWidth=3;" vertex="1" parent="1">
          <mxGeometry x="515" y="-695" width="50" height="50" as="geometry" />
        </mxCell>
        <mxCell id="cq4bhQK_P8V5caKXd9An-57" value="" style="ellipse;whiteSpace=wrap;html=1;aspect=fixed;strokeWidth=3;" vertex="1" parent="1">
          <mxGeometry x="685" y="-695" width="50" height="50" as="geometry" />
        </mxCell>
        <mxCell id="cq4bhQK_P8V5caKXd9An-58" value="" style="ellipse;whiteSpace=wrap;html=1;aspect=fixed;strokeWidth=3;" vertex="1" parent="1">
          <mxGeometry x="615" y="-605" width="50" height="50" as="geometry" />
        </mxCell>
        <mxCell id="cq4bhQK_P8V5caKXd9An-59" value="" style="ellipse;whiteSpace=wrap;html=1;aspect=fixed;strokeWidth=3;" vertex="1" parent="1">
          <mxGeometry x="765" y="-615" width="50" height="50" as="geometry" />
        </mxCell>
        <mxCell id="cq4bhQK_P8V5caKXd9An-60" value="" style="endArrow=none;html=1;rounded=0;entryX=0;entryY=1;entryDx=0;entryDy=0;exitX=1;exitY=0;exitDx=0;exitDy=0;strokeWidth=3;" edge="1" parent="1" source="cq4bhQK_P8V5caKXd9An-55">
          <mxGeometry width="50" height="50" relative="1" as="geometry">
            <mxPoint x="645" y="-775" as="sourcePoint" />
            <mxPoint x="802.3223304703365" y="-862.3223304703365" as="targetPoint" />
          </mxGeometry>
        </mxCell>
        <mxCell id="cq4bhQK_P8V5caKXd9An-61" value="" style="endArrow=none;html=1;rounded=0;strokeWidth=3;" edge="1" parent="1">
          <mxGeometry width="50" height="50" relative="1" as="geometry">
            <mxPoint x="555" y="-695" as="sourcePoint" />
            <mxPoint x="605" y="-745" as="targetPoint" />
          </mxGeometry>
        </mxCell>
        <mxCell id="cq4bhQK_P8V5caKXd9An-62" value="" style="endArrow=none;html=1;rounded=0;strokeWidth=3;" edge="1" parent="1" source="cq4bhQK_P8V5caKXd9An-57" target="cq4bhQK_P8V5caKXd9An-55">
          <mxGeometry width="50" height="50" relative="1" as="geometry">
            <mxPoint x="685" y="-685" as="sourcePoint" />
            <mxPoint x="735" y="-735" as="targetPoint" />
          </mxGeometry>
        </mxCell>
        <mxCell id="cq4bhQK_P8V5caKXd9An-63" value="" style="endArrow=none;html=1;rounded=0;strokeWidth=3;" edge="1" parent="1" source="cq4bhQK_P8V5caKXd9An-58" target="cq4bhQK_P8V5caKXd9An-57">
          <mxGeometry width="50" height="50" relative="1" as="geometry">
            <mxPoint x="645" y="-605" as="sourcePoint" />
            <mxPoint x="705" y="-655" as="targetPoint" />
          </mxGeometry>
        </mxCell>
        <mxCell id="cq4bhQK_P8V5caKXd9An-64" value="" style="endArrow=none;html=1;rounded=0;strokeWidth=3;" edge="1" parent="1" source="cq4bhQK_P8V5caKXd9An-59" target="cq4bhQK_P8V5caKXd9An-57">
          <mxGeometry width="50" height="50" relative="1" as="geometry">
            <mxPoint x="765" y="-595" as="sourcePoint" />
            <mxPoint x="815" y="-645" as="targetPoint" />
          </mxGeometry>
        </mxCell>
        <mxCell id="cq4bhQK_P8V5caKXd9An-65" value="" style="ellipse;whiteSpace=wrap;html=1;aspect=fixed;strokeWidth=3;fillColor=#1ba1e2;fontColor=#ffffff;strokeColor=#006EAF;" vertex="1" parent="1">
          <mxGeometry x="935" y="-799" width="50" height="50" as="geometry" />
        </mxCell>
        <mxCell id="cq4bhQK_P8V5caKXd9An-66" value="" style="ellipse;whiteSpace=wrap;html=1;aspect=fixed;strokeWidth=3;" vertex="1" parent="1">
          <mxGeometry x="865" y="-709" width="50" height="50" as="geometry" />
        </mxCell>
        <mxCell id="cq4bhQK_P8V5caKXd9An-67" value="" style="ellipse;whiteSpace=wrap;html=1;aspect=fixed;strokeWidth=3;fillColor=#1ba1e2;fontColor=#ffffff;strokeColor=#006EAF;" vertex="1" parent="1">
          <mxGeometry x="1005" y="-709" width="50" height="50" as="geometry" />
        </mxCell>
        <mxCell id="cq4bhQK_P8V5caKXd9An-68" value="" style="endArrow=none;html=1;rounded=0;entryX=1;entryY=1;entryDx=0;entryDy=0;strokeWidth=3;fillColor=#1ba1e2;strokeColor=#006EAF;" edge="1" parent="1" source="cq4bhQK_P8V5caKXd9An-65">
          <mxGeometry width="50" height="50" relative="1" as="geometry">
            <mxPoint x="935" y="-789" as="sourcePoint" />
            <mxPoint x="837.677669529664" y="-862.322330470336" as="targetPoint" />
          </mxGeometry>
        </mxCell>
        <mxCell id="cq4bhQK_P8V5caKXd9An-69" value="" style="endArrow=none;html=1;rounded=0;strokeWidth=3;" edge="1" parent="1" source="cq4bhQK_P8V5caKXd9An-66" target="cq4bhQK_P8V5caKXd9An-65">
          <mxGeometry width="50" height="50" relative="1" as="geometry">
            <mxPoint x="895" y="-709" as="sourcePoint" />
            <mxPoint x="955" y="-759" as="targetPoint" />
          </mxGeometry>
        </mxCell>
        <mxCell id="cq4bhQK_P8V5caKXd9An-70" value="" style="endArrow=none;html=1;rounded=0;exitX=0.273;exitY=-0.013;exitDx=0;exitDy=0;exitPerimeter=0;strokeWidth=3;fillColor=#1ba1e2;strokeColor=#006EAF;" edge="1" parent="1" source="cq4bhQK_P8V5caKXd9An-67" target="cq4bhQK_P8V5caKXd9An-65">
          <mxGeometry width="50" height="50" relative="1" as="geometry">
            <mxPoint x="1015" y="-709" as="sourcePoint" />
            <mxPoint x="975" y="-759" as="targetPoint" />
          </mxGeometry>
        </mxCell>
        <mxCell id="cq4bhQK_P8V5caKXd9An-71" value="" style="ellipse;whiteSpace=wrap;html=1;aspect=fixed;strokeWidth=3;fillColor=#1ba1e2;fontColor=#ffffff;strokeColor=#006EAF;" vertex="1" parent="1">
          <mxGeometry x="1085" y="-615" width="50" height="50" as="geometry" />
        </mxCell>
        <mxCell id="cq4bhQK_P8V5caKXd9An-72" value="" style="ellipse;whiteSpace=wrap;html=1;aspect=fixed;strokeWidth=3;" vertex="1" parent="1">
          <mxGeometry x="1005" y="-525" width="50" height="50" as="geometry" />
        </mxCell>
        <mxCell id="cq4bhQK_P8V5caKXd9An-73" value="" style="ellipse;whiteSpace=wrap;html=1;aspect=fixed;strokeWidth=3;fillColor=#1ba1e2;fontColor=#ffffff;strokeColor=#006EAF;" vertex="1" parent="1">
          <mxGeometry x="1155" y="-525" width="50" height="50" as="geometry" />
        </mxCell>
        <mxCell id="cq4bhQK_P8V5caKXd9An-74" value="" style="endArrow=none;html=1;rounded=0;strokeWidth=3;" edge="1" parent="1" source="cq4bhQK_P8V5caKXd9An-72" target="cq4bhQK_P8V5caKXd9An-71">
          <mxGeometry width="50" height="50" relative="1" as="geometry">
            <mxPoint x="1045" y="-525" as="sourcePoint" />
            <mxPoint x="1105" y="-575" as="targetPoint" />
          </mxGeometry>
        </mxCell>
        <mxCell id="cq4bhQK_P8V5caKXd9An-75" value="" style="endArrow=none;html=1;rounded=0;strokeWidth=3;fillColor=#1ba1e2;strokeColor=#006EAF;" edge="1" parent="1" source="cq4bhQK_P8V5caKXd9An-73" target="cq4bhQK_P8V5caKXd9An-71">
          <mxGeometry width="50" height="50" relative="1" as="geometry">
            <mxPoint x="1165" y="-515" as="sourcePoint" />
            <mxPoint x="1215" y="-565" as="targetPoint" />
          </mxGeometry>
        </mxCell>
        <mxCell id="cq4bhQK_P8V5caKXd9An-76" value="" style="endArrow=none;html=1;rounded=0;exitX=0;exitY=0;exitDx=0;exitDy=0;strokeWidth=3;fillColor=#1ba1e2;strokeColor=#006EAF;" edge="1" parent="1" source="cq4bhQK_P8V5caKXd9An-71" target="cq4bhQK_P8V5caKXd9An-67">
          <mxGeometry width="50" height="50" relative="1" as="geometry">
            <mxPoint x="1091" y="-615" as="sourcePoint" />
            <mxPoint x="1045" y="-667" as="targetPoint" />
          </mxGeometry>
        </mxCell>
        <mxCell id="cq4bhQK_P8V5caKXd9An-77" value="" style="ellipse;whiteSpace=wrap;html=1;aspect=fixed;strokeWidth=3;" vertex="1" parent="1">
          <mxGeometry x="845" y="-535" width="50" height="50" as="geometry" />
        </mxCell>
        <mxCell id="cq4bhQK_P8V5caKXd9An-78" value="" style="ellipse;whiteSpace=wrap;html=1;aspect=fixed;strokeWidth=3;" vertex="1" parent="1">
          <mxGeometry x="745" y="-440" width="50" height="50" as="geometry" />
        </mxCell>
        <mxCell id="cq4bhQK_P8V5caKXd9An-79" value="" style="ellipse;whiteSpace=wrap;html=1;aspect=fixed;strokeWidth=3;" vertex="1" parent="1">
          <mxGeometry x="915" y="-440" width="50" height="50" as="geometry" />
        </mxCell>
        <mxCell id="cq4bhQK_P8V5caKXd9An-80" value="" style="endArrow=none;html=1;rounded=0;entryX=1;entryY=1;entryDx=0;entryDy=0;strokeWidth=3;" edge="1" parent="1" source="cq4bhQK_P8V5caKXd9An-77" target="cq4bhQK_P8V5caKXd9An-59">
          <mxGeometry width="50" height="50" relative="1" as="geometry">
            <mxPoint x="830" y="-509" as="sourcePoint" />
            <mxPoint x="792" y="-565" as="targetPoint" />
          </mxGeometry>
        </mxCell>
        <mxCell id="cq4bhQK_P8V5caKXd9An-81" value="" style="endArrow=none;html=1;rounded=0;strokeWidth=3;" edge="1" parent="1" source="cq4bhQK_P8V5caKXd9An-78" target="cq4bhQK_P8V5caKXd9An-77">
          <mxGeometry width="50" height="50" relative="1" as="geometry">
            <mxPoint x="790" y="-429" as="sourcePoint" />
            <mxPoint x="850" y="-479" as="targetPoint" />
          </mxGeometry>
        </mxCell>
        <mxCell id="cq4bhQK_P8V5caKXd9An-82" value="" style="endArrow=none;html=1;rounded=0;strokeWidth=3;" edge="1" parent="1" source="cq4bhQK_P8V5caKXd9An-79" target="cq4bhQK_P8V5caKXd9An-77">
          <mxGeometry width="50" height="50" relative="1" as="geometry">
            <mxPoint x="910" y="-419" as="sourcePoint" />
            <mxPoint x="960" y="-469" as="targetPoint" />
          </mxGeometry>
        </mxCell>
        <mxCell id="cq4bhQK_P8V5caKXd9An-83" value="" style="ellipse;whiteSpace=wrap;html=1;aspect=fixed;strokeWidth=3;fillColor=#1ba1e2;fontColor=#ffffff;strokeColor=#006EAF;" vertex="1" parent="1">
          <mxGeometry x="795" y="-885" width="50" height="50" as="geometry" />
        </mxCell>
        <mxCell id="cq4bhQK_P8V5caKXd9An-84" value="" style="ellipse;whiteSpace=wrap;html=1;aspect=fixed;strokeWidth=3;fillColor=#1ba1e2;fontColor=#ffffff;strokeColor=#006EAF;" vertex="1" parent="1">
          <mxGeometry x="1085" y="-440" width="50" height="50" as="geometry" />
        </mxCell>
        <mxCell id="cq4bhQK_P8V5caKXd9An-85" value="" style="endArrow=none;html=1;rounded=0;strokeWidth=3;fillColor=#1ba1e2;strokeColor=#006EAF;" edge="1" parent="1" source="cq4bhQK_P8V5caKXd9An-84" target="cq4bhQK_P8V5caKXd9An-73">
          <mxGeometry width="50" height="50" relative="1" as="geometry">
            <mxPoint x="1115" y="-440" as="sourcePoint" />
            <mxPoint x="1165" y="-485" as="targetPoint" />
          </mxGeometry>
        </mxCell>
        <mxCell id="cq4bhQK_P8V5caKXd9An-86" value="" style="ellipse;whiteSpace=wrap;html=1;aspect=fixed;strokeWidth=3;" vertex="1" parent="1">
          <mxGeometry x="830" y="-335" width="50" height="50" as="geometry" />
        </mxCell>
        <mxCell id="cq4bhQK_P8V5caKXd9An-87" value="" style="endArrow=none;html=1;rounded=0;strokeWidth=3;" edge="1" parent="1" source="cq4bhQK_P8V5caKXd9An-86" target="cq4bhQK_P8V5caKXd9An-79">
          <mxGeometry width="50" height="50" relative="1" as="geometry">
            <mxPoint x="860" y="-338" as="sourcePoint" />
            <mxPoint x="909" y="-379" as="targetPoint" />
          </mxGeometry>
        </mxCell>
        <mxCell id="cq4bhQK_P8V5caKXd9An-88" value="" style="ellipse;whiteSpace=wrap;html=1;aspect=fixed;strokeWidth=3;" vertex="1" parent="1">
          <mxGeometry x="995" y="-335" width="50" height="50" as="geometry" />
        </mxCell>
        <mxCell id="cq4bhQK_P8V5caKXd9An-89" value="" style="endArrow=none;html=1;rounded=0;strokeWidth=3;" edge="1" parent="1" source="cq4bhQK_P8V5caKXd9An-88" target="cq4bhQK_P8V5caKXd9An-79">
          <mxGeometry width="50" height="50" relative="1" as="geometry">
            <mxPoint x="985" y="-335" as="sourcePoint" />
            <mxPoint x="945" y="-390" as="targetPoint" />
          </mxGeometry>
        </mxCell>
        <mxCell id="cq4bhQK_P8V5caKXd9An-90" value="" style="whiteSpace=wrap;html=1;aspect=fixed;strokeWidth=3;" vertex="1" parent="1">
          <mxGeometry x="1460" y="-905" width="730" height="730" as="geometry" />
        </mxCell>
        <mxCell id="cq4bhQK_P8V5caKXd9An-91" value="" style="ellipse;whiteSpace=wrap;html=1;aspect=fixed;strokeWidth=3;fillColor=#60a917;fontColor=#ffffff;strokeColor=#2D7600;" vertex="1" parent="1">
          <mxGeometry x="1575" y="-785" width="50" height="50" as="geometry" />
        </mxCell>
        <mxCell id="cq4bhQK_P8V5caKXd9An-92" value="" style="ellipse;whiteSpace=wrap;html=1;aspect=fixed;strokeWidth=3;" vertex="1" parent="1">
          <mxGeometry x="1485" y="-695" width="50" height="50" as="geometry" />
        </mxCell>
        <mxCell id="cq4bhQK_P8V5caKXd9An-93" value="" style="ellipse;whiteSpace=wrap;html=1;aspect=fixed;strokeWidth=3;fillColor=#60a917;fontColor=#ffffff;strokeColor=#2D7600;" vertex="1" parent="1">
          <mxGeometry x="1655" y="-695" width="50" height="50" as="geometry" />
        </mxCell>
        <mxCell id="cq4bhQK_P8V5caKXd9An-94" value="" style="ellipse;whiteSpace=wrap;html=1;aspect=fixed;strokeWidth=3;" vertex="1" parent="1">
          <mxGeometry x="1585" y="-605" width="50" height="50" as="geometry" />
        </mxCell>
        <mxCell id="cq4bhQK_P8V5caKXd9An-95" value="" style="ellipse;whiteSpace=wrap;html=1;aspect=fixed;strokeWidth=3;fillColor=#60a917;fontColor=#ffffff;strokeColor=#2D7600;" vertex="1" parent="1">
          <mxGeometry x="1735" y="-615" width="50" height="50" as="geometry" />
        </mxCell>
        <mxCell id="cq4bhQK_P8V5caKXd9An-96" value="" style="endArrow=none;html=1;rounded=0;entryX=0;entryY=1;entryDx=0;entryDy=0;exitX=1;exitY=0;exitDx=0;exitDy=0;strokeWidth=3;fillColor=#60a917;strokeColor=#2D7600;" edge="1" parent="1" source="cq4bhQK_P8V5caKXd9An-91">
          <mxGeometry width="50" height="50" relative="1" as="geometry">
            <mxPoint x="1615" y="-775" as="sourcePoint" />
            <mxPoint x="1772.3223304703365" y="-862.3223304703365" as="targetPoint" />
          </mxGeometry>
        </mxCell>
        <mxCell id="cq4bhQK_P8V5caKXd9An-97" value="" style="endArrow=none;html=1;rounded=0;strokeWidth=3;" edge="1" parent="1">
          <mxGeometry width="50" height="50" relative="1" as="geometry">
            <mxPoint x="1525" y="-695" as="sourcePoint" />
            <mxPoint x="1575" y="-745" as="targetPoint" />
          </mxGeometry>
        </mxCell>
        <mxCell id="cq4bhQK_P8V5caKXd9An-98" value="" style="endArrow=none;html=1;rounded=0;strokeWidth=3;fillColor=#60a917;strokeColor=#2D7600;" edge="1" parent="1" source="cq4bhQK_P8V5caKXd9An-93" target="cq4bhQK_P8V5caKXd9An-91">
          <mxGeometry width="50" height="50" relative="1" as="geometry">
            <mxPoint x="1655" y="-685" as="sourcePoint" />
            <mxPoint x="1705" y="-735" as="targetPoint" />
          </mxGeometry>
        </mxCell>
        <mxCell id="cq4bhQK_P8V5caKXd9An-99" value="" style="endArrow=none;html=1;rounded=0;strokeWidth=3;" edge="1" parent="1" source="cq4bhQK_P8V5caKXd9An-94" target="cq4bhQK_P8V5caKXd9An-93">
          <mxGeometry width="50" height="50" relative="1" as="geometry">
            <mxPoint x="1615" y="-605" as="sourcePoint" />
            <mxPoint x="1675" y="-655" as="targetPoint" />
          </mxGeometry>
        </mxCell>
        <mxCell id="cq4bhQK_P8V5caKXd9An-100" value="" style="endArrow=none;html=1;rounded=0;strokeWidth=3;fillColor=#60a917;strokeColor=#2D7600;" edge="1" parent="1" source="cq4bhQK_P8V5caKXd9An-95" target="cq4bhQK_P8V5caKXd9An-93">
          <mxGeometry width="50" height="50" relative="1" as="geometry">
            <mxPoint x="1735" y="-595" as="sourcePoint" />
            <mxPoint x="1785" y="-645" as="targetPoint" />
          </mxGeometry>
        </mxCell>
        <mxCell id="cq4bhQK_P8V5caKXd9An-101" value="" style="ellipse;whiteSpace=wrap;html=1;aspect=fixed;strokeWidth=3;" vertex="1" parent="1">
          <mxGeometry x="1905" y="-799" width="50" height="50" as="geometry" />
        </mxCell>
        <mxCell id="cq4bhQK_P8V5caKXd9An-102" value="" style="ellipse;whiteSpace=wrap;html=1;aspect=fixed;strokeWidth=3;" vertex="1" parent="1">
          <mxGeometry x="1835" y="-709" width="50" height="50" as="geometry" />
        </mxCell>
        <mxCell id="cq4bhQK_P8V5caKXd9An-103" value="" style="ellipse;whiteSpace=wrap;html=1;aspect=fixed;strokeWidth=3;" vertex="1" parent="1">
          <mxGeometry x="1975" y="-709" width="50" height="50" as="geometry" />
        </mxCell>
        <mxCell id="cq4bhQK_P8V5caKXd9An-104" value="" style="endArrow=none;html=1;rounded=0;entryX=1;entryY=1;entryDx=0;entryDy=0;strokeWidth=3;" edge="1" parent="1" source="cq4bhQK_P8V5caKXd9An-101">
          <mxGeometry width="50" height="50" relative="1" as="geometry">
            <mxPoint x="1905" y="-789" as="sourcePoint" />
            <mxPoint x="1807.677669529664" y="-862.322330470336" as="targetPoint" />
          </mxGeometry>
        </mxCell>
        <mxCell id="cq4bhQK_P8V5caKXd9An-105" value="" style="endArrow=none;html=1;rounded=0;strokeWidth=3;" edge="1" parent="1" source="cq4bhQK_P8V5caKXd9An-102" target="cq4bhQK_P8V5caKXd9An-101">
          <mxGeometry width="50" height="50" relative="1" as="geometry">
            <mxPoint x="1865" y="-709" as="sourcePoint" />
            <mxPoint x="1925" y="-759" as="targetPoint" />
          </mxGeometry>
        </mxCell>
        <mxCell id="cq4bhQK_P8V5caKXd9An-106" value="" style="endArrow=none;html=1;rounded=0;exitX=0.273;exitY=-0.013;exitDx=0;exitDy=0;exitPerimeter=0;strokeWidth=3;" edge="1" parent="1" source="cq4bhQK_P8V5caKXd9An-103" target="cq4bhQK_P8V5caKXd9An-101">
          <mxGeometry width="50" height="50" relative="1" as="geometry">
            <mxPoint x="1985" y="-709" as="sourcePoint" />
            <mxPoint x="1945" y="-759" as="targetPoint" />
          </mxGeometry>
        </mxCell>
        <mxCell id="cq4bhQK_P8V5caKXd9An-107" value="" style="ellipse;whiteSpace=wrap;html=1;aspect=fixed;strokeWidth=3;" vertex="1" parent="1">
          <mxGeometry x="2055" y="-615" width="50" height="50" as="geometry" />
        </mxCell>
        <mxCell id="cq4bhQK_P8V5caKXd9An-108" value="" style="ellipse;whiteSpace=wrap;html=1;aspect=fixed;strokeWidth=3;" vertex="1" parent="1">
          <mxGeometry x="1975" y="-525" width="50" height="50" as="geometry" />
        </mxCell>
        <mxCell id="cq4bhQK_P8V5caKXd9An-109" value="" style="ellipse;whiteSpace=wrap;html=1;aspect=fixed;strokeWidth=3;" vertex="1" parent="1">
          <mxGeometry x="2125" y="-525" width="50" height="50" as="geometry" />
        </mxCell>
        <mxCell id="cq4bhQK_P8V5caKXd9An-110" value="" style="endArrow=none;html=1;rounded=0;strokeWidth=3;" edge="1" parent="1" source="cq4bhQK_P8V5caKXd9An-108" target="cq4bhQK_P8V5caKXd9An-107">
          <mxGeometry width="50" height="50" relative="1" as="geometry">
            <mxPoint x="2015" y="-525" as="sourcePoint" />
            <mxPoint x="2075" y="-575" as="targetPoint" />
          </mxGeometry>
        </mxCell>
        <mxCell id="cq4bhQK_P8V5caKXd9An-111" value="" style="endArrow=none;html=1;rounded=0;strokeWidth=3;" edge="1" parent="1" source="cq4bhQK_P8V5caKXd9An-109" target="cq4bhQK_P8V5caKXd9An-107">
          <mxGeometry width="50" height="50" relative="1" as="geometry">
            <mxPoint x="2135" y="-515" as="sourcePoint" />
            <mxPoint x="2185" y="-565" as="targetPoint" />
          </mxGeometry>
        </mxCell>
        <mxCell id="cq4bhQK_P8V5caKXd9An-112" value="" style="endArrow=none;html=1;rounded=0;exitX=0;exitY=0;exitDx=0;exitDy=0;strokeWidth=3;" edge="1" parent="1" source="cq4bhQK_P8V5caKXd9An-107" target="cq4bhQK_P8V5caKXd9An-103">
          <mxGeometry width="50" height="50" relative="1" as="geometry">
            <mxPoint x="2061" y="-615" as="sourcePoint" />
            <mxPoint x="2015" y="-667" as="targetPoint" />
          </mxGeometry>
        </mxCell>
        <mxCell id="cq4bhQK_P8V5caKXd9An-113" value="" style="ellipse;whiteSpace=wrap;html=1;aspect=fixed;strokeWidth=3;fillColor=#60a917;fontColor=#ffffff;strokeColor=#2D7600;" vertex="1" parent="1">
          <mxGeometry x="1815" y="-535" width="50" height="50" as="geometry" />
        </mxCell>
        <mxCell id="cq4bhQK_P8V5caKXd9An-114" value="" style="ellipse;whiteSpace=wrap;html=1;aspect=fixed;strokeWidth=3;fillColor=#60a917;fontColor=#ffffff;strokeColor=#2D7600;" vertex="1" parent="1">
          <mxGeometry x="1715" y="-440" width="50" height="50" as="geometry" />
        </mxCell>
        <mxCell id="cq4bhQK_P8V5caKXd9An-115" value="" style="ellipse;whiteSpace=wrap;html=1;aspect=fixed;strokeWidth=3;" vertex="1" parent="1">
          <mxGeometry x="1885" y="-440" width="50" height="50" as="geometry" />
        </mxCell>
        <mxCell id="cq4bhQK_P8V5caKXd9An-116" value="" style="endArrow=none;html=1;rounded=0;entryX=1;entryY=1;entryDx=0;entryDy=0;strokeWidth=3;fillColor=#60a917;strokeColor=#2D7600;" edge="1" parent="1" source="cq4bhQK_P8V5caKXd9An-113" target="cq4bhQK_P8V5caKXd9An-95">
          <mxGeometry width="50" height="50" relative="1" as="geometry">
            <mxPoint x="1800" y="-509" as="sourcePoint" />
            <mxPoint x="1762" y="-565" as="targetPoint" />
          </mxGeometry>
        </mxCell>
        <mxCell id="cq4bhQK_P8V5caKXd9An-117" value="" style="endArrow=none;html=1;rounded=0;strokeWidth=3;fillColor=#60a917;strokeColor=#2D7600;" edge="1" parent="1" source="cq4bhQK_P8V5caKXd9An-114" target="cq4bhQK_P8V5caKXd9An-113">
          <mxGeometry width="50" height="50" relative="1" as="geometry">
            <mxPoint x="1760" y="-429" as="sourcePoint" />
            <mxPoint x="1820" y="-479" as="targetPoint" />
          </mxGeometry>
        </mxCell>
        <mxCell id="cq4bhQK_P8V5caKXd9An-118" value="" style="endArrow=none;html=1;rounded=0;strokeWidth=3;" edge="1" parent="1" source="cq4bhQK_P8V5caKXd9An-115" target="cq4bhQK_P8V5caKXd9An-113">
          <mxGeometry width="50" height="50" relative="1" as="geometry">
            <mxPoint x="1880" y="-419" as="sourcePoint" />
            <mxPoint x="1930" y="-469" as="targetPoint" />
          </mxGeometry>
        </mxCell>
        <mxCell id="cq4bhQK_P8V5caKXd9An-119" value="" style="ellipse;whiteSpace=wrap;html=1;aspect=fixed;strokeWidth=3;fillColor=#60a917;fontColor=#ffffff;strokeColor=#2D7600;" vertex="1" parent="1">
          <mxGeometry x="1765" y="-885" width="50" height="50" as="geometry" />
        </mxCell>
        <mxCell id="cq4bhQK_P8V5caKXd9An-120" value="" style="ellipse;whiteSpace=wrap;html=1;aspect=fixed;strokeWidth=3;" vertex="1" parent="1">
          <mxGeometry x="2055" y="-440" width="50" height="50" as="geometry" />
        </mxCell>
        <mxCell id="cq4bhQK_P8V5caKXd9An-121" value="" style="endArrow=none;html=1;rounded=0;strokeWidth=3;" edge="1" parent="1" source="cq4bhQK_P8V5caKXd9An-120" target="cq4bhQK_P8V5caKXd9An-109">
          <mxGeometry width="50" height="50" relative="1" as="geometry">
            <mxPoint x="2085" y="-440" as="sourcePoint" />
            <mxPoint x="2135" y="-485" as="targetPoint" />
          </mxGeometry>
        </mxCell>
        <mxCell id="cq4bhQK_P8V5caKXd9An-122" value="" style="ellipse;whiteSpace=wrap;html=1;aspect=fixed;strokeWidth=3;" vertex="1" parent="1">
          <mxGeometry x="1800" y="-335" width="50" height="50" as="geometry" />
        </mxCell>
        <mxCell id="cq4bhQK_P8V5caKXd9An-123" value="" style="endArrow=none;html=1;rounded=0;strokeWidth=3;" edge="1" parent="1" source="cq4bhQK_P8V5caKXd9An-122" target="cq4bhQK_P8V5caKXd9An-115">
          <mxGeometry width="50" height="50" relative="1" as="geometry">
            <mxPoint x="1830" y="-338" as="sourcePoint" />
            <mxPoint x="1879" y="-379" as="targetPoint" />
          </mxGeometry>
        </mxCell>
        <mxCell id="cq4bhQK_P8V5caKXd9An-124" value="" style="ellipse;whiteSpace=wrap;html=1;aspect=fixed;strokeWidth=3;" vertex="1" parent="1">
          <mxGeometry x="1965" y="-335" width="50" height="50" as="geometry" />
        </mxCell>
        <mxCell id="cq4bhQK_P8V5caKXd9An-125" value="" style="endArrow=none;html=1;rounded=0;strokeWidth=3;" edge="1" parent="1" source="cq4bhQK_P8V5caKXd9An-124" target="cq4bhQK_P8V5caKXd9An-115">
          <mxGeometry width="50" height="50" relative="1" as="geometry">
            <mxPoint x="1955" y="-335" as="sourcePoint" />
            <mxPoint x="1915" y="-390" as="targetPoint" />
          </mxGeometry>
        </mxCell>
        <mxCell id="cq4bhQK_P8V5caKXd9An-131" value="" style="rounded=0;whiteSpace=wrap;html=1;strokeWidth=3;" vertex="1" parent="1">
          <mxGeometry x="110" y="130" width="1460" height="120" as="geometry" />
        </mxCell>
        <mxCell id="cq4bhQK_P8V5caKXd9An-133" value="" style="endArrow=classic;html=1;rounded=0;strokeWidth=3;" edge="1" parent="1" source="cq4bhQK_P8V5caKXd9An-51">
          <mxGeometry width="50" height="50" relative="1" as="geometry">
            <mxPoint x="130" y="-70" as="sourcePoint" />
            <mxPoint x="115" y="-110" as="targetPoint" />
          </mxGeometry>
        </mxCell>
        <mxCell id="cq4bhQK_P8V5caKXd9An-135" value="" style="endArrow=classic;html=1;rounded=0;strokeWidth=3;" edge="1" parent="1">
          <mxGeometry width="50" height="50" relative="1" as="geometry">
            <mxPoint x="1108.8899999999999" y="-390" as="sourcePoint" />
            <mxPoint x="1109" y="-100" as="targetPoint" />
          </mxGeometry>
        </mxCell>
        <mxCell id="cq4bhQK_P8V5caKXd9An-136" value="" style="endArrow=classic;html=1;rounded=0;strokeWidth=3;" edge="1" parent="1">
          <mxGeometry width="50" height="50" relative="1" as="geometry">
            <mxPoint x="1738.8899999999999" y="-395" as="sourcePoint" />
            <mxPoint x="1739" y="-105" as="targetPoint" />
          </mxGeometry>
        </mxCell>
        <mxCell id="cq4bhQK_P8V5caKXd9An-137" value="&lt;font style=&quot;font-size: 43px;&quot;&gt;k1&lt;/font&gt;" style="text;html=1;strokeColor=none;fillColor=none;align=center;verticalAlign=middle;whiteSpace=wrap;rounded=0;fontStyle=1" vertex="1" parent="1">
          <mxGeometry x="60" y="-90" width="110" height="70" as="geometry" />
        </mxCell>
        <mxCell id="cq4bhQK_P8V5caKXd9An-138" value="&lt;font style=&quot;font-size: 43px;&quot;&gt;k2&lt;/font&gt;" style="text;html=1;strokeColor=none;fillColor=none;align=center;verticalAlign=middle;whiteSpace=wrap;rounded=0;fontStyle=1" vertex="1" parent="1">
          <mxGeometry x="1055" y="-90" width="110" height="70" as="geometry" />
        </mxCell>
        <mxCell id="cq4bhQK_P8V5caKXd9An-139" value="&lt;font style=&quot;font-size: 43px;&quot;&gt;kn&lt;/font&gt;" style="text;html=1;strokeColor=none;fillColor=none;align=center;verticalAlign=middle;whiteSpace=wrap;rounded=0;fontStyle=1" vertex="1" parent="1">
          <mxGeometry x="1685" y="-100" width="110" height="70" as="geometry" />
        </mxCell>
        <mxCell id="cq4bhQK_P8V5caKXd9An-140" value="" style="endArrow=classic;html=1;rounded=0;exitX=0.5;exitY=1;exitDx=0;exitDy=0;entryX=0.5;entryY=0;entryDx=0;entryDy=0;strokeWidth=3;" edge="1" parent="1" source="cq4bhQK_P8V5caKXd9An-137" target="cq4bhQK_P8V5caKXd9An-131">
          <mxGeometry width="50" height="50" relative="1" as="geometry">
            <mxPoint x="890" y="-340" as="sourcePoint" />
            <mxPoint x="820" y="-50" as="targetPoint" />
          </mxGeometry>
        </mxCell>
        <mxCell id="cq4bhQK_P8V5caKXd9An-141" value="" style="endArrow=classic;html=1;rounded=0;exitX=0.5;exitY=1;exitDx=0;exitDy=0;entryX=0.5;entryY=0;entryDx=0;entryDy=0;strokeWidth=3;" edge="1" parent="1" target="cq4bhQK_P8V5caKXd9An-131">
          <mxGeometry width="50" height="50" relative="1" as="geometry">
            <mxPoint x="1090" y="-30" as="sourcePoint" />
            <mxPoint x="1815" y="120" as="targetPoint" />
          </mxGeometry>
        </mxCell>
        <mxCell id="cq4bhQK_P8V5caKXd9An-143" value="" style="endArrow=classic;html=1;rounded=0;exitX=0.5;exitY=1;exitDx=0;exitDy=0;entryX=0.513;entryY=-0.01;entryDx=0;entryDy=0;entryPerimeter=0;strokeWidth=3;" edge="1" parent="1" target="cq4bhQK_P8V5caKXd9An-131">
          <mxGeometry width="50" height="50" relative="1" as="geometry">
            <mxPoint x="1730" y="-40" as="sourcePoint" />
            <mxPoint x="2455" y="110" as="targetPoint" />
          </mxGeometry>
        </mxCell>
        <mxCell id="cq4bhQK_P8V5caKXd9An-144" value="" style="endArrow=classic;html=1;rounded=0;exitX=0.481;exitY=0.992;exitDx=0;exitDy=0;exitPerimeter=0;entryX=0.5;entryY=0;entryDx=0;entryDy=0;strokeWidth=3;" edge="1" parent="1" source="cq4bhQK_P8V5caKXd9An-1" target="cq4bhQK_P8V5caKXd9An-2">
          <mxGeometry width="50" height="50" relative="1" as="geometry">
            <mxPoint x="770" y="-960" as="sourcePoint" />
            <mxPoint x="820" y="-1010" as="targetPoint" />
          </mxGeometry>
        </mxCell>
        <mxCell id="cq4bhQK_P8V5caKXd9An-145" value="" style="endArrow=classic;html=1;rounded=0;entryX=0.466;entryY=0.004;entryDx=0;entryDy=0;entryPerimeter=0;exitX=0.484;exitY=1.037;exitDx=0;exitDy=0;exitPerimeter=0;strokeWidth=3;" edge="1" parent="1" source="cq4bhQK_P8V5caKXd9An-1" target="cq4bhQK_P8V5caKXd9An-54">
          <mxGeometry width="50" height="50" relative="1" as="geometry">
            <mxPoint x="820" y="-1340" as="sourcePoint" />
            <mxPoint x="-40" y="-900" as="targetPoint" />
          </mxGeometry>
        </mxCell>
        <mxCell id="cq4bhQK_P8V5caKXd9An-146" value="" style="endArrow=classic;html=1;rounded=0;exitX=0.491;exitY=1.004;exitDx=0;exitDy=0;exitPerimeter=0;strokeWidth=3;" edge="1" parent="1" source="cq4bhQK_P8V5caKXd9An-1">
          <mxGeometry width="50" height="50" relative="1" as="geometry">
            <mxPoint x="840" y="-1326" as="sourcePoint" />
            <mxPoint x="1860" y="-910" as="targetPoint" />
          </mxGeometry>
        </mxCell>
        <mxCell id="cq4bhQK_P8V5caKXd9An-147" value="&lt;font style=&quot;font-size: 50px;&quot;&gt;X_train&lt;/font&gt;" style="text;html=1;strokeColor=none;fillColor=none;align=center;verticalAlign=middle;whiteSpace=wrap;rounded=0;fontStyle=1" vertex="1" parent="1">
          <mxGeometry x="590" y="-1405" width="520" height="30" as="geometry" />
        </mxCell>
        <mxCell id="cq4bhQK_P8V5caKXd9An-148" value="&lt;font style=&quot;font-size: 50px;&quot;&gt;tree1&lt;/font&gt;" style="text;html=1;strokeColor=none;fillColor=none;align=center;verticalAlign=middle;whiteSpace=wrap;rounded=0;fontStyle=1" vertex="1" parent="1">
          <mxGeometry x="-580" y="-250" width="520" height="30" as="geometry" />
        </mxCell>
        <mxCell id="cq4bhQK_P8V5caKXd9An-149" style="edgeStyle=orthogonalEdgeStyle;rounded=0;orthogonalLoop=1;jettySize=auto;html=1;exitX=0.5;exitY=1;exitDx=0;exitDy=0;" edge="1" parent="1" source="cq4bhQK_P8V5caKXd9An-148" target="cq4bhQK_P8V5caKXd9An-148">
          <mxGeometry relative="1" as="geometry" />
        </mxCell>
        <mxCell id="cq4bhQK_P8V5caKXd9An-150" value="&lt;font style=&quot;font-size: 50px;&quot;&gt;tree 2&lt;/font&gt;" style="text;html=1;strokeColor=none;fillColor=none;align=center;verticalAlign=middle;whiteSpace=wrap;rounded=0;fontStyle=1" vertex="1" parent="1">
          <mxGeometry x="313" y="-250" width="520" height="30" as="geometry" />
        </mxCell>
        <mxCell id="cq4bhQK_P8V5caKXd9An-151" value="&lt;font style=&quot;font-size: 50px;&quot;&gt;tree 200&lt;/font&gt;" style="text;html=1;strokeColor=none;fillColor=none;align=center;verticalAlign=middle;whiteSpace=wrap;rounded=0;fontStyle=1" vertex="1" parent="1">
          <mxGeometry x="1310" y="-240" width="520" height="30" as="geometry" />
        </mxCell>
        <mxCell id="cq4bhQK_P8V5caKXd9An-152" value="&lt;font style=&quot;font-size: 50px;&quot;&gt;Average &lt;span class=&quot;hljs-variable&quot;&gt;of&lt;/span&gt; &lt;span class=&quot;hljs-variable&quot;&gt;Predictions&lt;/span&gt; &lt;span class=&quot;hljs-variable&quot;&gt;from&lt;/span&gt; &lt;span class=&quot;hljs-built_in&quot;&gt;Tree&lt;/span&gt; &lt;span class=&quot;hljs-number&quot;&gt;1&lt;/span&gt;&lt;span class=&quot;hljs-operator&quot;&gt;,&lt;/span&gt; &lt;span class=&quot;hljs-built_in&quot;&gt;Tree&lt;/span&gt; &lt;span class=&quot;hljs-number&quot;&gt;2,...&lt;/span&gt;&lt;span class=&quot;hljs-built_in&quot;&gt;Tree 200&lt;/span&gt;&lt;/font&gt;" style="text;html=1;strokeColor=none;fillColor=none;align=center;verticalAlign=middle;whiteSpace=wrap;rounded=0;fontStyle=1" vertex="1" parent="1">
          <mxGeometry x="170" y="175" width="1340" height="30" as="geometry" />
        </mxCell>
        <mxCell id="cq4bhQK_P8V5caKXd9An-153" value="" style="ellipse;whiteSpace=wrap;html=1;aspect=fixed;strokeWidth=3;" vertex="1" parent="1">
          <mxGeometry x="1250" y="-240" width="40" height="40" as="geometry" />
        </mxCell>
        <mxCell id="cq4bhQK_P8V5caKXd9An-154" value="" style="ellipse;whiteSpace=wrap;html=1;aspect=fixed;strokeWidth=3;" vertex="1" parent="1">
          <mxGeometry x="1310" y="-240" width="40" height="40" as="geometry" />
        </mxCell>
        <mxCell id="cq4bhQK_P8V5caKXd9An-155" value="" style="ellipse;whiteSpace=wrap;html=1;aspect=fixed;strokeWidth=3;" vertex="1" parent="1">
          <mxGeometry x="1370" y="-240" width="40" height="40" as="geometry" />
        </mxCell>
      </root>
    </mxGraphModel>
  </diagram>
</mxfile>
